<?xml version="1.0" encoding="UTF-8"?>
<svg width="52px" height="46px" viewBox="0 0 52 46" version="1.1" xmlns="http://www.w3.org/2000/svg" xmlns:xlink="http://www.w3.org/1999/xlink">
    <!-- Generator: Sketch 42 (36781) - http://www.bohemiancoding.com/sketch -->
    <title>comment</title>
    <desc>Created with Sketch.</desc>
    <defs>
        <linearGradient x1="100%" y1="50%" x2="-2.22044605e-14%" y2="50%" id="linearGradient-1">
            <stop stop-color="#FF017E" offset="0%"></stop>
            <stop stop-color="#FF0030" offset="100%"></stop>
        </linearGradient>
        <linearGradient x1="100%" y1="50%" x2="-2.22044605e-14%" y2="50%" id="linearGradient-2">
            <stop stop-color="#E52452" offset="0%"></stop>
            <stop stop-color="#FF0030" offset="100%"></stop>
        </linearGradient>
    </defs>
    <g id="Page-1" stroke="none" stroke-width="1" fill="none" fill-rule="evenodd">
        <g id="comment" transform="translate(2.000000, 2.000000)" stroke-width="3.5" stroke="url(#linearGradient-2)">
            <g id="Symbols">
                <g id="drake">
                    <g id="play-count">
                        <g id="Shape-+-136,236">
                            <path d="M24.0707152,0.23924504 C10.7987975,0.23924504 0,9.5991753 0,21.1038954 C0,26.9346913 1.7970894,30.2734753 5.45463862,34.2505071 C5.84394821,34.5654461 6.01492877,35.012626 5.91831878,35.5626334 C5.79205621,36.349144 5.3116367,38.8005031 4.86852204,41.230101 C4.81304303,41.534279 4.83934773,41.8336744 5.00937176,41.9568282 C5.24970108,42.0857212 5.65096735,41.8958491 5.8886662,41.781065 C6.17993099,41.6399761 9.1511666,40.503613 11.1756721,39.4057504 C11.6032431,39.1281162 12.1869684,38.95594 12.6764749,39.1587253 C15.5566007,40.4455035 18.546967,42.0001114 24.0707152,41.9697414 C37.3450243,41.8970448 48.1426261,32.6098111 48.1426261,21.1043737 C48.1426261,9.5991753 37.3450243,0.23924504 24.0707152,0.23924504 L24.0707152,0.23924504 Z" id="Page-1"></path>
                        </g>
                    </g>
                </g>
            </g>
        </g>
    </g>
</svg>