<?xml version="1.0" encoding="UTF-8"?>
<svg width="48px" height="48px" viewBox="0 0 48 48" version="1.1" xmlns="http://www.w3.org/2000/svg" xmlns:xlink="http://www.w3.org/1999/xlink">
    <!-- Generator: Sketch 42 (36781) - http://www.bohemiancoding.com/sketch -->
    <title>mic icon copy</title>
    <desc>Created with Sketch.</desc>
    <defs></defs>
    <g id="Symbols" stroke="none" stroke-width="1" fill="none" fill-rule="evenodd">
        <g id="floating-button" transform="translate(-41.000000, -41.000000)" fill="#E52452">
            <g id="mic-icon-copy" transform="translate(41.000000, 41.000000)">
                <path d="M30.7,34.4 C26.1,34.4 21.8,32.6 18.6,29.4 C15.4,26.2 13.6,21.9 13.6,17.3 C13.6,12.7 15.4,8.4 18.6,5.2 C21.8,2 26.2,0.2 30.7,0.2 C35.2,0.2 39.6,2 42.8,5.2 C46,8.4 47.8,12.8 47.8,17.3 C47.8,21.9 46,26.2 42.8,29.4 C39.6,32.6 35.3,34.4 30.7,34.4 L30.7,34.4 Z M30.7,4 C27.2,4 23.8,5.4 21.3,7.9 C18.8,10.4 17.4,13.7 17.4,17.3 C17.4,20.8 18.8,24.2 21.3,26.7 C23.8,29.2 27.1,30.6 30.7,30.6 C34.2,30.6 37.6,29.2 40.1,26.7 C42.6,24.2 44,20.9 44,17.3 C44,13.8 42.6,10.4 40.1,7.9 C37.6,5.4 34.3,4 30.7,4 L30.7,4 Z" id="Shape"></path>
                <path d="M8.4,47.9 C6.4,47.9 4.3,47 2.6,45.3 C-0.2,42.5 -0.8,38.5 1.2,36 L13.8,20.3 C14.5,19.5 15.7,19.3 16.6,20 C17.4,20.7 17.6,21.9 16.9,22.8 L4.4,38.4 C3.7,39.2 4,41.1 5.5,42.5 C7,44 8.8,44.2 9.6,43.6 L25.2,31 C26,30.3 27.3,30.5 28,31.3 C28.7,32.1 28.5,33.4 27.7,34.1 L12,46.7 C11,47.5 9.8,47.9 8.4,47.9 L8.4,47.9 Z" id="Shape"></path>
                <path d="M14.9,35.1 C14.4,35.1 13.9,34.9 13.5,34.5 C12.7,33.7 12.7,32.5 13.5,31.7 L14.5,30.7 C15.3,29.9 16.5,29.9 17.3,30.7 C18.1,31.5 18.1,32.7 17.3,33.5 L16.3,34.5 C15.9,34.9 15.4,35.1 14.9,35.1 L14.9,35.1 Z" id="Shape"></path>
            </g>
        </g>
    </g>
</svg>